# xmcd CD database file
#
# Track frame offsets:
#	172
#	16057
#	52122
#	80535
#	107665
#	135010
#	176207
#	199937
#
# Disc length: 3091 seconds
#
# Revision: 0
# Processed by: cddbd v1.5.2PL0 Copyright (c) Steve Scherf et al.
# Submitted via: CDex 1.70beta2
#
DISCID=620c1108
DTITLE=Christy Doran's New Bag - No's The Time
DYEAR=1900
DGENRE=Jazz
TTITLE0=Five-Four Afro
TTITLE1=Light And Darkness
TTITLE2=Ghost Notes
TTITLE3=A Deal, Part I
TTITLE4=A Deal, Part II
TTITLE5=Terrible Wonderland
TTITLE6=The Time Is Now, Part I
TTITLE7=The Time Is Now, Part II
EXTD=
EXTT0=
EXTT1=
EXTT2=
EXTT3=
EXTT4=
EXTT5=
EXTT6=
EXTT7=
PLAYORDER=
